<svg xmlns="http://www.w3.org/2000/svg" viewBox="0 0 500 500" width="500" height="500">
  <style>
    .edge { stroke: #313244; stroke-width: 3; }
    .node-circle { fill: #f5e0dc; stroke: #313244; stroke-width: 3; }
    .node-text { font-family: sans-serif; font-size: 20px; text-anchor: middle; dominant-baseline: central; fill: #11111b; font-weight: bold; }
  </style>
  <!-- Edges -->
  <line x1="250.0" y1="50.0" x2="440.21130325903073" y2="188.19660112501052" class="edge" />
  <line x1="440.21130325903073" y1="188.19660112501052" x2="367.55705045849464" y2="411.8033988749895" class="edge" />
  <line x1="367.55705045849464" y1="411.8033988749895" x2="132.4429495415054" y2="411.8033988749895" class="edge" />
  <line x1="132.4429495415054" y1="411.8033988749895" x2="59.78869674096927" y2="188.19660112501055" class="edge" />
  <line x1="59.78869674096927" y1="188.19660112501055" x2="250.0" y2="50.0" class="edge" />
  <line x1="250.0" y1="150.0" x2="308.7785252292473" y2="330.90169943749476" class="edge" />
  <line x1="308.7785252292473" y1="330.90169943749476" x2="154.89434837048464" y2="219.09830056250527" class="edge" />
  <line x1="154.89434837048464" y1="219.09830056250527" x2="345.10565162951536" y2="219.09830056250527" class="edge" />
  <line x1="345.10565162951536" y1="219.09830056250527" x2="191.2214747707527" y2="330.90169943749476" class="edge" />
  <line x1="191.2214747707527" y1="330.90169943749476" x2="250.0" y2="150.0" class="edge" />
  <line x1="250.0" y1="50.0" x2="250.0" y2="150.0" class="edge" />
  <line x1="440.21130325903073" y1="188.19660112501052" x2="345.10565162951536" y2="219.09830056250527" class="edge" />
  <line x1="367.55705045849464" y1="411.8033988749895" x2="308.7785252292473" y2="330.90169943749476" class="edge" />
  <line x1="132.4429495415054" y1="411.8033988749895" x2="191.2214747707527" y2="330.90169943749476" class="edge" />
  <line x1="59.78869674096927" y1="188.19660112501055" x2="154.89434837048464" y2="219.09830056250527" class="edge" />
  <!-- Nodes -->
  <g transform="translate(250.0,50.0)">
    <circle r="25" class="node-circle" />
    <text class="node-text">0</text>
  </g>
  <g transform="translate(440.21130325903073,188.19660112501052)">
    <circle r="25" class="node-circle" />
    <text class="node-text">1</text>
  </g>
  <g transform="translate(367.55705045849464,411.8033988749895)">
    <circle r="25" class="node-circle" />
    <text class="node-text">2</text>
  </g>
  <g transform="translate(132.4429495415054,411.8033988749895)">
    <circle r="25" class="node-circle" />
    <text class="node-text">3</text>
  </g>
  <g transform="translate(59.78869674096927,188.19660112501055)">
    <circle r="25" class="node-circle" />
    <text class="node-text">4</text>
  </g>
  <g transform="translate(250.0,150.0)">
    <circle r="25" class="node-circle" />
    <text class="node-text">5</text>
  </g>
  <g transform="translate(345.10565162951536,219.09830056250527)">
    <circle r="25" class="node-circle" />
    <text class="node-text">6</text>
  </g>
  <g transform="translate(308.7785252292473,330.90169943749476)">
    <circle r="25" class="node-circle" />
    <text class="node-text">7</text>
  </g>
  <g transform="translate(191.2214747707527,330.90169943749476)">
    <circle r="25" class="node-circle" />
    <text class="node-text">8</text>
  </g>
  <g transform="translate(154.89434837048464,219.09830056250527)">
    <circle r="25" class="node-circle" />
    <text class="node-text">9</text>
  </g>
</svg>
